<?xml version="1.0" standalone="no"?><!DOCTYPE svg PUBLIC "-//W3C//DTD SVG 1.1//EN" "http://www.w3.org/Graphics/SVG/1.1/DTD/svg11.dtd"><svg t="1610458301015" class="icon" viewBox="0 0 1024 1024" version="1.1" xmlns="http://www.w3.org/2000/svg" p-id="2982" xmlns:xlink="http://www.w3.org/1999/xlink" width="96" height="96"><defs><style type="text/css"></style></defs><path d="M211.5 451.9H796v301.8H211.5z" fill="#4A4847" p-id="2983"></path><path d="M567.7 764.4V601.5c0-32.5-26.3-58.8-58.8-58.8h-10.3c-32.4 0-58.8 26.3-58.8 58.8v162.9h127.9z" fill="#667987" p-id="2984"></path><path d="M464.7 650.9V602c0-19.1 15.5-34.5 34.5-34.5h9.1c19 0 34.5 15.5 34.5 34.5v48.9h-78.1z" fill="#BABCBD" p-id="2985"></path><path d="M506.1 174.8L102.5 431.9h44.3l359.3-226.7 359.3 226.7h44.3z" fill="#D2D4D7" p-id="2986"></path><path d="M160 423.8h692.1v28.1H160z" fill="#D2D4D7" p-id="2987"></path><path d="M160 433.3h692.1v9.1H160z" fill="#BABCBD" p-id="2988"></path><path d="M195.6 753.7h621.1V775H195.6zM506.1 775H137.5v21.3h737.3V775zM506.1 796.3H113.5v25.1h785.2v-25.1z" fill="#D2D4D7" p-id="2989"></path><path d="M506.1 821.1H113.5v31.2h785.2v-31.2z" fill="#4A4847" p-id="2990"></path><path d="M137.5 790.5h737.3v5.8H137.5zM195.6 769.3h621.1v5.8H195.6z" fill="#BABCBD" p-id="2991"></path><path d="M506.1 205.2L160 423.8h692.2z" fill="#4A4847" p-id="2992"></path><path d="M506.1 262.6c-14.7 0-26.6 11.9-26.6 26.6 0 14.7 11.9 26.6 26.6 26.6 14.7 0 26.6-11.9 26.6-26.6 0-14.7-11.9-26.6-26.6-26.6z" fill="#667987" p-id="2993"></path><path d="M243.6 451.9h-32.1v274.6h63.2V451.9z" fill="#D2D4D7" p-id="2994"></path><path d="M232.9 473.6h3.5v252.9h-3.5zM220.6 473.6h3.5v252.9h-3.5zM249.8 473.6h3.5v252.9h-3.5zM262.1 473.6h3.5v252.9h-3.5z" fill="#BABCBD" p-id="2995"></path><path d="M277 726.5h-66.9c-7.7 0-13.9 6.9-13.9 15.3v11.9h94.6v-11.9c0.1-8.4-6.1-15.3-13.8-15.3z" fill="#D2D4D7" p-id="2996"></path><path d="M243.5 451.9H201.2v21.7H285v-21.7z" fill="#667987" p-id="2997"></path><path d="M179.6 473.6c0-12 9.7-21.6 21.6-21.6 12 0 21.7 9.7 21.7 21.6 0 12-9.7 21.6-21.7 21.6-11.9 0-21.6-9.7-21.6-21.6z" fill="#D2D4D7" p-id="2998"></path><path d="M201.2 486.1c-6.9 0-12.6-5.6-12.6-12.6 0-6.9 5.6-12.6 12.6-12.6 6.9 0 12.6 5.6 12.6 12.6s-5.6 12.6-12.6 12.6z m0-21.6c-5 0-9.1 4.1-9.1 9.1s4.1 9.1 9.1 9.1 9.1-4.1 9.1-9.1c0-5.1-4-9.1-9.1-9.1z" fill="#BABCBD" p-id="2999"></path><path d="M306.6 473.6c0-12-9.7-21.6-21.7-21.6s-21.6 9.7-21.6 21.6c0 12 9.7 21.6 21.6 21.6 12 0 21.7-9.7 21.7-21.6z" fill="#D2D4D7" p-id="3000"></path><path d="M285 486.1c-6.9 0-12.5-5.6-12.5-12.6 0-6.9 5.6-12.6 12.5-12.6s12.6 5.6 12.6 12.6c-0.1 7-5.7 12.6-12.6 12.6z m0-21.6c-5 0-9.1 4.1-9.1 9.1s4.1 9.1 9.1 9.1 9.1-4.1 9.1-9.1c0-5.1-4.1-9.1-9.1-9.1z" fill="#BABCBD" p-id="3001"></path><path d="M385.8 451.9h-32.1v274.6h63.2V451.9z" fill="#D2D4D7" p-id="3002"></path><path d="M375.1 473.6h3.5v252.9h-3.5zM362.8 473.6h3.5v252.9h-3.5zM392 473.6h3.5v252.9H392zM404.3 473.6h3.5v252.9h-3.5z" fill="#BABCBD" p-id="3003"></path><path d="M419.2 726.5h-66.9c-7.7 0-13.9 6.9-13.9 15.3v11.9H433v-11.9c0.1-8.4-6.1-15.3-13.8-15.3z" fill="#D2D4D7" p-id="3004"></path><path d="M343.4 451.9h83.7v21.6h-83.7z" fill="#667987" p-id="3005"></path><path d="M321.8 473.6c0-12 9.7-21.6 21.7-21.6s21.6 9.7 21.6 21.6c0 12-9.7 21.6-21.6 21.6-12 0-21.7-9.7-21.7-21.6z" fill="#D2D4D7" p-id="3006"></path><path d="M343.4 486.1c-6.9 0-12.6-5.6-12.6-12.6 0-6.9 5.6-12.6 12.6-12.6 6.9 0 12.5 5.6 12.5 12.6 0.1 7-5.5 12.6-12.5 12.6z m0-21.6c-5 0-9.1 4.1-9.1 9.1s4.1 9.1 9.1 9.1 9.1-4.1 9.1-9.1c0-5.1-4.1-9.1-9.1-9.1z" fill="#BABCBD" p-id="3007"></path><path d="M448.8 473.6c0-12-9.7-21.6-21.6-21.6-12 0-21.7 9.7-21.7 21.6 0 12 9.7 21.6 21.7 21.6 11.9 0 21.6-9.7 21.6-21.6z" fill="#D2D4D7" p-id="3008"></path><path d="M427.2 486.1c-6.9 0-12.6-5.6-12.6-12.6 0-6.9 5.6-12.6 12.6-12.6 6.9 0 12.5 5.6 12.5 12.6s-5.6 12.6-12.5 12.6z m0-21.6c-5 0-9.1 4.1-9.1 9.1s4.1 9.1 9.1 9.1 9.1-4.1 9.1-9.1c0-5.1-4.1-9.1-9.1-9.1z" fill="#BABCBD" p-id="3009"></path><path d="M624.6 451.9h-32v274.6h63.1V451.9z" fill="#D2D4D7" p-id="3010"></path><path d="M614 473.6h3.5v252.9H614zM601.6 473.6h3.5v252.9h-3.5zM630.8 473.6h3.5v252.9h-3.5zM643.1 473.6h3.5v252.9h-3.5z" fill="#BABCBD" p-id="3011"></path><path d="M658 726.5h-66.9c-7.7 0-13.9 6.9-13.9 15.3v11.9H671.9v-11.9c0-8.4-6.2-15.3-13.9-15.3z" fill="#D2D4D7" p-id="3012"></path><path d="M582.3 451.9H666v21.6h-83.7z" fill="#667987" p-id="3013"></path><path d="M560.6 473.6c0-12 9.7-21.6 21.6-21.6 12 0 21.7 9.7 21.7 21.6 0 12-9.7 21.6-21.7 21.6-11.9 0-21.6-9.7-21.6-21.6z" fill="#D2D4D7" p-id="3014"></path><path d="M582.3 486.1c-6.9 0-12.5-5.6-12.5-12.6 0-6.9 5.6-12.6 12.5-12.6s12.6 5.6 12.6 12.6c-0.1 7-5.7 12.6-12.6 12.6z m0-21.6c-5 0-9.1 4.1-9.1 9.1s4.1 9.1 9.1 9.1 9.1-4.1 9.1-9.1c0-5.1-4.1-9.1-9.1-9.1z" fill="#BABCBD" p-id="3015"></path><path d="M687.6 473.6c0-12-9.7-21.6-21.6-21.6-12 0-21.7 9.7-21.7 21.6 0 12 9.7 21.6 21.7 21.6 11.9 0 21.6-9.7 21.6-21.6z" fill="#D2D4D7" p-id="3016"></path><path d="M666 486.1c-6.9 0-12.6-5.6-12.6-12.6 0-6.9 5.6-12.6 12.6-12.6 6.9 0 12.5 5.6 12.5 12.6s-5.6 12.6-12.5 12.6z m0-21.6c-5 0-9.1 4.1-9.1 9.1s4.1 9.1 9.1 9.1 9.1-4.1 9.1-9.1c0-5.1-4.1-9.1-9.1-9.1z" fill="#BABCBD" p-id="3017"></path><path d="M769.6 451.9h-32v274.6h63.2V451.9z" fill="#D2D4D7" p-id="3018"></path><path d="M759 473.6h3.5v252.9H759zM746.7 473.6h3.5v252.9h-3.5zM775.9 473.6h3.5v252.9h-3.5zM788.2 473.6h3.5v252.9h-3.5z" fill="#BABCBD" p-id="3019"></path><path d="M803.1 726.5h-66.9c-7.7 0-13.9 6.9-13.9 15.3v11.9H817v-11.9c0-8.4-6.3-15.3-13.9-15.3z" fill="#D2D4D7" p-id="3020"></path><path d="M727.3 451.9H811v21.6h-83.7z" fill="#667987" p-id="3021"></path><path d="M727.3 473.6m-21.6 0a21.6 21.6 0 1 0 43.2 0 21.6 21.6 0 1 0-43.2 0Z" fill="#D2D4D7" p-id="3022"></path><path d="M727.3 486.1c-6.9 0-12.6-5.6-12.6-12.6 0-6.9 5.6-12.6 12.6-12.6 6.9 0 12.6 5.6 12.6 12.6s-5.7 12.6-12.6 12.6z m0-21.6c-5 0-9.1 4.1-9.1 9.1s4.1 9.1 9.1 9.1 9.1-4.1 9.1-9.1c0-5.1-4.1-9.1-9.1-9.1z" fill="#BABCBD" p-id="3023"></path><path d="M832.7 473.6c0-12-9.7-21.6-21.7-21.6s-21.6 9.7-21.6 21.6c0 12 9.7 21.6 21.6 21.6 12 0 21.7-9.7 21.7-21.6z" fill="#D2D4D7" p-id="3024"></path><path d="M811 486.1c-6.9 0-12.5-5.6-12.5-12.6 0-6.9 5.6-12.6 12.5-12.6s12.6 5.6 12.6 12.6-5.6 12.6-12.6 12.6z m0-21.6c-5 0-9.1 4.1-9.1 9.1s4.1 9.1 9.1 9.1 9.1-4.1 9.1-9.1c0-5.1-4-9.1-9.1-9.1z" fill="#BABCBD" p-id="3025"></path><path d="M562.8 409H449.5c-19 0-34.5-15.5-34.5-34.5 0-18.9 15.5-34.4 34.5-34.4h113.3c18.9 0 34.4 15.5 34.4 34.4 0 19-15.5 34.5-34.4 34.5z" fill="#667987" p-id="3026"></path><path d="M433.1 353.6c2.4-0.5 6.2-0.9 10.1-0.9 5.5 0 9.1 0.9 11.8 3.1 2.2 1.7 3.6 4.2 3.6 7.6 0 4.2-2.8 7.8-7.3 9.4v0.1c4.1 1 8.9 4.4 8.9 10.8 0 3.7-1.5 6.5-3.6 8.6-3 2.8-7.8 4-14.9 4-3.8 0-6.8-0.2-8.6-0.5v-42.2z m5.5 17.6h5c5.9 0 9.3-3.1 9.3-7.2 0-5-3.8-7-9.5-7-2.6 0-4 0.2-4.9 0.4v13.8z m0 20.6c1.1 0.2 2.7 0.3 4.6 0.3 5.8 0 11-2.1 11-8.4 0-5.9-5-8.3-11.1-8.3h-4.6v16.4zM474.6 382.5l-4.5 13.5h-5.7l14.6-43h6.7l14.7 43h-5.9l-4.6-13.5h-15.3z m14.2-4.3l-4.2-12.4c-1-2.8-1.6-5.4-2.2-7.9h-0.1c-0.6 2.6-1.3 5.2-2.2 7.8l-4.2 12.4h12.9zM506.8 396v-43h6.1l13.8 21.8c3.2 5 5.7 9.6 7.7 14l0.1-0.1c-0.5-5.7-0.6-11-0.6-17.7v-18h5.2v43h-5.6l-13.7-21.8c-3-4.8-5.9-9.7-8-14.4l-0.2 0.1c0.3 5.4 0.5 10.6 0.5 17.7V396h-5.3zM548.8 353h5.6v20.7h0.2c1.1-1.7 2.3-3.2 3.4-4.6l13.1-16.2h6.9l-15.6 18.3 16.8 24.8h-6.6l-14.2-21.1-4.1 4.7V396h-5.6v-43z" fill="#FFFFFF" p-id="3027"></path></svg>